<svg xmlns="http://www.w3.org/2000/svg" width="20.242" height="15.642" viewBox="0 0 20.242 15.642">
  <g id="IconL.book-open-outline" transform="translate(-350.05 -773)">
    <path id="book-open-outline" d="M19.4,4H2.84A1.84,1.84,0,0,0,1,5.84V17.8a1.84,1.84,0,0,0,1.84,1.84H19.4a1.84,1.84,0,0,0,1.84-1.84V5.84A1.84,1.84,0,0,0,19.4,4M2.84,17.8V5.84H10.2V17.8H2.84m16.562,0H12.041V5.84H19.4V17.8M12.961,9.061h5.521v1.38H12.961V9.061m0,2.3h5.521v1.38H12.961v-1.38m0,2.3h5.521v1.38H12.961Z" transform="translate(349.05 769)" fill="#ed4a8e"/>
  </g>
</svg>
