<svg xmlns="http://www.w3.org/2000/svg" width="20" height="20" viewBox="0 0 20 20">
  <g id="IconL.spa-outline" transform="translate(-2 -771)">
    <g id="IconL.spa-outline-2" data-name="IconL.spa-outline" transform="translate(2 771)">
      <path id="spa-outline" d="M15.5,9.63A14.22,14.22,0,0,0,12,12.26,13.74,13.74,0,0,0,8.5,9.63,12.253,12.253,0,0,1,12.06,2,11.854,11.854,0,0,1,15.5,9.63M12,15.45A11.946,11.946,0,0,1,22,10c0,10-9.32,11.88-10,12-.68-.11-10-2-10-12a11.946,11.946,0,0,1,10,5.45m.05-10.26a10.209,10.209,0,0,0-1.37,3.39L12,9.55l1.35-.98a10.145,10.145,0,0,0-1.3-3.38M12,19.97a10.236,10.236,0,0,0,7.74-7.72A12.674,12.674,0,0,0,12,19.1S9,13,4.26,12.26A10.234,10.234,0,0,0,12,19.97Z" transform="translate(-2 -2)" fill="#006dca"/>
    </g>
  </g>
</svg>
