<svg xmlns="http://www.w3.org/2000/svg" width="19" height="18" viewBox="0 0 19 18">
  <g id="_IconL.paper-roll-outline" data-name=" IconL.paper-roll-outline" transform="translate(2 -773)">
    <path id="paper-roll-outline" d="M9,3A6.1,6.1,0,0,0,3,9V21h9V13.46A5.936,5.936,0,0,0,16,15,6,6,0,0,0,16,3H9M9,5h2.54A5.936,5.936,0,0,0,10,9v3H9v1h1v6H5V13H6V12H5V9A4,4,0,0,1,9,5m7,0a4,4,0,1,1-4,4,4,4,0,0,1,4-4m0,2.25A1.75,1.75,0,1,0,17.75,9,1.746,1.746,0,0,0,16,7.25M7,12v1H8V12Z" transform="translate(-5 770)" fill="#121212"/>
  </g>
</svg>
