<svg xmlns="http://www.w3.org/2000/svg" width="22" height="21" viewBox="0 0 22 21">
  <g id="_IconL.vacuum-outline" data-name=" IconL.vacuum-outline" transform="translate(3 -771)">
    <path id="vacuum-outline" d="M20.66,20,13.87,3.81a4.708,4.708,0,0,0-1.71-2.04A4.479,4.479,0,0,0,9.61,1a4.406,4.406,0,0,0-2.31.63A4.744,4.744,0,0,0,5.63,3.32,4.536,4.536,0,0,0,5,5.64L5.03,9h-3v5.45A4.743,4.743,0,0,1,4,14.03v-3H9a1.939,1.939,0,0,1,1.43.59A1.857,1.857,0,0,1,11,13v7.03H8.91A4.671,4.671,0,0,1,7.97,22H13V13a4.008,4.008,0,0,0-.55-2A3.784,3.784,0,0,0,11,9.56,3.735,3.735,0,0,0,9,9H7V5.64a2.537,2.537,0,0,1,.76-1.85,2.542,2.542,0,0,1,3.3-.33A2.561,2.561,0,0,1,12,4.61L18.46,20,16,20.03V22h7V20.03L20.66,20M4,18a1,1,0,1,1-1,1,1,1,0,0,1,1-1m0-2a3,3,0,1,0,3,3A3,3,0,0,0,4,16Z" transform="translate(-4 770)" fill="#121212"/>
  </g>
</svg>
