<svg xmlns="http://www.w3.org/2000/svg" width="16" height="21" viewBox="0 0 16 21">
  <g id="IconL.wheelchair-accessibility" transform="translate(-4 -771)">
    <path id="IconL.wheelchair-accessibility-2" data-name="IconL.wheelchair-accessibility" d="M18.4,11.2l-4.1.2,2.3-2.6a1.813,1.813,0,0,0,.2-1.3,1.374,1.374,0,0,0-.5-.8L10.9,3.5a1.209,1.209,0,0,0-1.4.1L6.8,6.1a1.155,1.155,0,0,0-.1,1.7,1.238,1.238,0,0,0,1.7.1l2-1.8,1.9,1.1L8.1,11.5c-.1.1-.1.2-.2.2a6.109,6.109,0,0,0-1.4.7L8,13.9a4.191,4.191,0,0,1,1.5-.4A3.543,3.543,0,0,1,13,17a2.41,2.41,0,0,1-.4,1.5L14.1,20a5.291,5.291,0,0,0,.9-3,5.456,5.456,0,0,0-1.1-3.3l3.3-.3L17,18.2a1.155,1.155,0,0,0,1.1,1.3h.1a1.278,1.278,0,0,0,1.2-1.1l.2-5.9a1.4,1.4,0,0,0-.3-.9,1.222,1.222,0,0,0-.9-.4M18,5.5a2,2,0,1,0-2-2,2,2,0,0,0,2,2M12.5,21.6a5.291,5.291,0,0,1-3,.9A5.549,5.549,0,0,1,4,17a5.291,5.291,0,0,1,.9-3l1.5,1.5A4.191,4.191,0,0,0,6,17a3.543,3.543,0,0,0,3.5,3.5,2.41,2.41,0,0,0,1.5-.4Z" transform="translate(0 769.5)" fill="#2f4858"/>
  </g>
</svg>
